<svg xmlns="http://www.w3.org/2000/svg"  height="17" viewBox="0 0 192.58 229.22"><defs><style>.cls-1{fill:#58574f;}</style></defs><g id="Ebene_2" data-name="Ebene 2"><g id="Objects"><path class="cls-1" d="M151.32,149.47a17.16,17.16,0,0,1,7.9,11.42c-5.57,26.6-34.67,27.91-51.37,26.37V72.35h28.89a11.5,11.5,0,1,0-.9-18h-28V40.74a22,22,0,1,0-23.11,0V54.37H56.5a11.5,11.5,0,1,0-.9,18H84.74V187.26c-16.7,1.54-45.81.23-51.38-26.37a17.16,17.16,0,0,1,7.9-11.42s-14-14-41.26-12.29c0,0,25.33,76,96,92h.55c70.68-16.08,96-92,96-92C165.37,135.43,151.32,149.47,151.32,149.47Zm-55-138.1A10.64,10.64,0,1,1,85.65,22,10.64,10.64,0,0,1,96.29,11.37Z"/></g></g></svg>