<svg xmlns="http://www.w3.org/2000/svg" viewBox="0 0 727.573 737.258">
  <defs>
    <style>
      .cls-1, .cls-2 {
        fill: #23221f;
      }

      .cls-2 {
        fill-rule: evenodd;
      }
    </style>
  </defs>
  <g id="Ebene_2" data-name="Ebene 2">
    <g id="Objects">
      <g id="radio">
        <path class="cls-1" d="M500.809,361.657l-12.554.434a5.9,5.9,0,0,0,.2-1.16,11.053,11.053,0,0,0-11.44-10.658l-8.461.293L150.3,208.483a8.481,8.481,0,0,0-6.9,15.494L434.773,354.06a11.025,11.025,0,0,0-4.272,8.878,10.623,10.623,0,0,0,.28,1.143L27.243,378.055A28.247,28.247,0,0,0,.017,407.287L10.5,710.031a28.2,28.2,0,0,0,29.18,27.21l473.584-16.4a28.23,28.23,0,0,0,27.211-29.162L529.992,388.935A28.292,28.292,0,0,0,500.809,361.657Zm-398.965,224.1a11.391,11.391,0,1,1,11.761,10.991A11.385,11.385,0,0,1,101.844,585.756Zm7.048,27.529a11.392,11.392,0,1,1-11.778-10.974A11.409,11.409,0,0,1,108.892,613.285Zm24.8-12.24a11.391,11.391,0,1,1-11.026,11.763A11.361,11.361,0,0,1,133.693,601.045Zm3.337-16.507a11.391,11.391,0,1,1,11.778,10.99A11.4,11.4,0,0,1,137.03,584.538Zm31.831,15.289a11.391,11.391,0,1,1-10.991,11.762A11.38,11.38,0,0,1,168.861,599.827Zm6.794-16.627a11.391,11.391,0,1,1,11.779,10.991A11.4,11.4,0,0,1,175.655,583.2Zm31.866,15.288A11.392,11.392,0,1,1,196.5,610.251,11.373,11.373,0,0,1,207.521,598.488Zm4.713-16.554a11.392,11.392,0,1,1,11.779,10.99A11.4,11.4,0,0,1,212.234,581.934Zm31.832,15.289a11.391,11.391,0,1,1-10.991,11.762A11.39,11.39,0,0,1,244.066,597.223Zm4.472-16.547a11.374,11.374,0,1,1,11.744,10.992A11.372,11.372,0,0,1,248.538,580.676ZM258.1,528.5a11.417,11.417,0,1,1,10.99-11.8A11.369,11.369,0,0,1,258.1,528.5Zm-3.526,21.49A11.391,11.391,0,1,1,242.79,539,11.412,11.412,0,0,1,254.569,549.992Zm-32.743-20.234a11.417,11.417,0,1,1,10.99-11.8A11.4,11.4,0,0,1,221.826,529.758Zm-3.819,21.5a11.383,11.383,0,1,1-11.8-10.99A11.416,11.416,0,0,1,218.007,551.258Zm-32.76-20.234a11.417,11.417,0,1,1,10.99-11.8A11.4,11.4,0,0,1,185.247,531.024ZM179.365,552.6a11.374,11.374,0,1,1-11.779-10.991A11.424,11.424,0,0,1,179.365,552.6Zm-32.744-20.234a11.417,11.417,0,1,1,10.99-11.8A11.4,11.4,0,0,1,146.621,532.362Zm-2.442,21.452a11.383,11.383,0,1,1-11.762-10.991A11.41,11.41,0,0,1,144.179,553.814Zm-32.761-20.233a11.417,11.417,0,1,1,11.007-11.8A11.383,11.383,0,0,1,111.418,533.581Zm-3.8,21.5a11.392,11.392,0,1,1-11.779-10.99A11.4,11.4,0,0,1,107.617,555.08ZM74.873,534.846a11.417,11.417,0,1,1,10.99-11.8A11.4,11.4,0,0,1,74.873,534.846Zm1.4,40.414a11.383,11.383,0,1,1-10.991,11.762A11.4,11.4,0,0,1,76.273,575.26Zm-9.027,68.479a11.391,11.391,0,1,1,11.779,11.008A11.394,11.394,0,0,1,67.246,643.739ZM99.3,683.867a11.383,11.383,0,1,1,10.989-11.8A11.412,11.412,0,0,1,99.3,683.867Zm4.506-41.394a11.392,11.392,0,1,1,11.763,11.009A11.38,11.38,0,0,1,103.807,642.473ZM135.845,682.6a11.383,11.383,0,1,1,10.99-11.8A11.4,11.4,0,0,1,135.845,682.6Zm3.148-41.346a11.392,11.392,0,1,1,11.78,11.008A11.4,11.4,0,0,1,138.993,641.255Zm32.055,40.127a11.383,11.383,0,1,1,10.99-11.8A11.4,11.4,0,0,1,171.048,681.382Zm6.571-41.465a11.391,11.391,0,1,1,11.78,11.008A11.394,11.394,0,0,1,177.619,639.917Zm32.055,40.128a11.383,11.383,0,1,1,10.99-11.8A11.4,11.4,0,0,1,209.674,680.045Zm4.524-41.394a11.391,11.391,0,1,1,11.779,11.007A11.393,11.393,0,0,1,214.2,638.651Zm32.038,40.128a11.383,11.383,0,1,1,11.007-11.8A11.395,11.395,0,0,1,246.236,678.779Zm4.266-41.385A11.374,11.374,0,1,1,262.247,648.4,11.364,11.364,0,0,1,250.5,637.394Zm32.02,40.128a11.383,11.383,0,1,1,10.99-11.8A11.383,11.383,0,0,1,282.522,677.522Zm-1.4-58.786a11.391,11.391,0,1,1,10.99-11.8A11.39,11.39,0,0,1,281.124,618.736Zm-1.24-58.188a11.409,11.409,0,1,1,10.989-11.813A11.412,11.412,0,0,1,279.884,560.548Zm38.684-99.087-198.476,6.873-6.637-21.62-5.332,22.034-46.193,1.6-1.72-49.684,22.426-.776.43,12.433,12.434-.43-.431-12.434,37.25-1.29.431,12.434,12.416-.43-.43-12.434,36.217-1.254.431,12.434,12.434-.43-.431-12.434,35.169-1.218.431,12.434,12.433-.431-.43-12.434,36.751-1.272.43,12.434,12.434-.431-.43-12.434,26.707-.924L318.6,461.46Zm31.409-50.124,115.894-4.014,1.72,49.667L351.7,461Zm77.47,241.814a65.579,65.579,0,1,1,63.27-67.809A65.6,65.6,0,0,1,427.447,653.151Z"/>
        <path class="cls-1" d="M423.625,542.777a44.583,44.583,0,0,0-8.466,1.137l-13.024-12.135.592,17.111.309-.045a44.5,44.5,0,1,0,20.589-6.068Z"/>
      </g>
      <g id="sound">
        <path id="sound4" class="cls-2" d="M484.9,12.8c1.072-5.186,3.92-7.1,6.98-8.234,8.648-3.193,17.24-5.545,26.906-4.157,17.763,2.549,34.659,7.726,51.285,14.151,4.282,1.653,8.684,3,12.973,4.64,3.413,1.3,6.794,2.725,10.079,4.312A185.653,185.653,0,0,1,622.35,40.928c5.689,4.17,11.216,8.573,16.69,13.023,3.81,3.1,7.3,6.593,11.121,9.683,8.622,6.971,16.919,14.2,23.449,23.316,2.12,2.959,5.31,5.132,7.634,7.973a145.949,145.949,0,0,1,9.3,12.569c6.9,10.526,13.6,21.178,20.344,31.8a63.93,63.93,0,0,1,7.373,15.765c2.317,7.608,5.633,14.894,6.835,22.854.639,4.238,1.619,8.428,2.334,12.659a11.846,11.846,0,0,1,0,3.659,9.187,9.187,0,0,1-7.847,7.9,8.881,8.881,0,0,1-9.029-5.089A24.242,24.242,0,0,1,708.516,190c-1.418-11.66-5.42-22.615-9.051-33.663a31.631,31.631,0,0,0-3.425-6.5q-9.981-16.018-20.085-31.96c-3.305-5.186-6.822-10.21-11.463-14.364a34.186,34.186,0,0,1-5.634-6.062c-5.577-8.293-13.092-14.594-20.7-20.835-3.327-2.722-6.723-5.394-9.8-8.382-11.115-10.78-23.819-19.238-37.386-26.6-6.22-3.377-12.311-6.728-19.272-8.466-3.517-.873-6.69-3.057-10.1-4.441-5.112-2.072-10.272-4.029-15.455-5.908-4.61-1.675-9.272-3.219-13.932-4.752-9.364-3.074-18.815-5.382-28.84-4.884C497.6,13.466,491.8,12.968,484.9,12.8Z"/>
        <path id="sound3" class="cls-2" d="M462.47,87.309c-.679-3.753.509-6.286,3.382-8.082,3.935-2.454,8.041-4.625,12.8-4.731,9.793-.215,19.5-.308,29.261,1.724,13.3,2.773,25.856,7.369,38.516,12.121,11.346,4.252,21.236,10.92,31.931,16.192a12.53,12.53,0,0,1,2.982,2.152c14.331,13.45,28.738,26.837,40.689,42.554a104.177,104.177,0,0,1,6.661,9.918c3.608,6.06,6.821,12.361,10.522,18.367,7.416,12.028,10.863,25.291,12.583,39.107.636,5.085-.481,9.8-4.159,13.628a7.258,7.258,0,0,1-12.473-2.817,11.6,11.6,0,0,1-.672-3.592,72.99,72.99,0,0,0-12.755-41.562,45.935,45.935,0,0,1-3.7-6.36c-6.936-15.085-18.1-26.916-29.544-38.525-3.234-3.282-6.646-6.386-9.86-9.685-4.951-5.081-10.75-8.879-16.645-12.827-11.649-7.791-25.137-11.352-37.221-17.976a11.538,11.538,0,0,0-2.6-.934c-12.441-3.247-24.7-7.457-37.6-8.533-6.065-.5-12.217.073-18.334.124C465.091,87.581,463.937,87.416,462.47,87.309Z"/>
        <path id="sound2" class="cls-2" d="M442.108,164.577c-.421-6.394.491-8.192,5.409-9.852a30.181,30.181,0,0,1,15.459-1.067c17.923,3.392,35.1,8.975,50.759,18.476,8.652,5.246,17.1,10.865,25.356,16.719,11.746,8.33,20.472,19.272,26.808,32.218,3.506,7.164,7.539,14.072,9.6,21.859a48.426,48.426,0,0,1,1.728,7.134c.62,5.793,1.026,11.622,1.355,17.439a28.094,28.094,0,0,1-.357,7.338,14.8,14.8,0,0,1-2.644,5.7,7.646,7.646,0,0,1-8.288,2.693c-3.362-.8-5.133-3.2-5.507-6.588-.745-6.711-1.293-13.455-2.188-20.149a52.642,52.642,0,0,0-2.439-11.613c-7.45-19.673-18.528-36.574-36.92-47.945-9.127-5.645-17.676-12.2-27.563-16.616-15.164-6.764-30.464-12.984-47.231-14.482a12.329,12.329,0,0,1-2.619-.7A2.915,2.915,0,0,1,442.108,164.577Z"/>
        <path id="sound1" class="cls-2" d="M498.686,306.894c-2.516-5.152-4.807-10.464-7.627-15.478-7.782-13.847-18.01-25.881-31.579-33.977-9.3-5.552-19.519-10.406-30.972-10.594-4.245-.072-8.425-1.328-12.756-.29-1.857.445-3.211-1.994-2.418-3.835,1.886-4.367,5.56-6.614,9.919-7.291,8.46-1.314,17-2.678,25.2,1.568a33.031,33.031,0,0,0,6.889,2.544c10.449,2.737,18.715,9.136,26.255,16.329,5.959,5.69,11.206,12.162,16.456,18.545,5.739,6.97,6.675,15.673,7.531,24.209C505.992,302.712,503.691,305.03,498.686,306.894Z"/>
      </g>
    </g>
  </g>
</svg>
